<svg width="144" height="42" viewBox="0 0 144 42" fill="none" xmlns="http://www.w3.org/2000/svg">
<path d="M24.998 5.604L14.5985 10.9051L11.6273 39.3192L22.0267 35.9265L24.998 5.604Z" fill="#1F1FB5" stroke="#1F1FB5" stroke-width="0.474577"/>
<path d="M38.581 3.48352L28.1816 8.78465L25.2103 37.1987L35.6098 33.806L38.581 3.48352Z" fill="#1F1FB5" stroke="white" stroke-width="0.474577"/>
<path d="M52.1639 1.78723L41.7645 7.08836L38.7932 35.5024L49.1927 32.1097L52.1639 1.78723Z" fill="#1F1FB5" stroke="white" stroke-width="0.474577"/>
<path d="M65.7094 11.4546V20.5532H64.242L59.951 14.3556H59.8754V20.5532H58.2257V11.4546H59.7019L63.9886 17.6566H64.0685V11.4546H65.7094ZM71.2634 20.5532V11.4546H77.1864V12.8362H72.9132V15.3064H76.8795V16.6881H72.9132V19.1715H77.222V20.5532H71.2634ZM82.6259 20.5532V11.4546H86.041C86.7406 11.4546 87.3276 11.5849 87.8019 11.8455C88.2791 12.1061 88.6393 12.4646 88.8824 12.9207C89.1285 13.3738 89.2514 13.8892 89.2514 14.4667C89.2514 15.0502 89.1285 15.5685 88.8824 16.0217C88.6364 16.4748 88.2732 16.8318 87.7929 17.0923C87.3127 17.3501 86.7213 17.4789 86.0188 17.4789H83.7554V16.1238H85.7964C86.2055 16.1238 86.5405 16.0528 86.8014 15.9106C87.0622 15.7684 87.2549 15.5729 87.3794 15.3241C87.5069 15.0753 87.5706 14.7896 87.5706 14.4667C87.5706 14.1439 87.5069 13.8596 87.3794 13.6137C87.2549 13.3679 87.0608 13.1769 86.7969 13.0406C86.536 12.9014 86.1995 12.8318 85.7875 12.8318H84.2757V20.5532H82.6259ZM94.4407 20.5532V11.4546H100.364V12.8362H96.0909V15.3064H100.057V16.6881H96.0909V19.1715H100.399V20.5532H94.4407ZM111.544 11.4546H113.194V17.3989C113.194 18.0505 113.04 18.6236 112.731 19.1183C112.426 19.6129 111.996 19.9994 111.442 20.2778C110.887 20.5532 110.24 20.6909 109.498 20.6909C108.755 20.6909 108.106 20.5532 107.551 20.2778C106.996 19.9994 106.567 19.6129 106.261 19.1183C105.956 18.6236 105.803 18.0505 105.803 17.3989V11.4546H107.453V17.2612C107.453 17.6403 107.536 17.9779 107.702 18.2741C107.871 18.5703 108.108 18.8028 108.413 18.9716C108.719 19.1375 109.08 19.2204 109.498 19.2204C109.917 19.2204 110.278 19.1375 110.584 18.9716C110.892 18.8028 111.129 18.5703 111.295 18.2741C111.461 17.9779 111.544 17.6403 111.544 17.2612V11.4546ZM118.744 20.5532V11.4546H122.158C122.858 11.4546 123.445 11.576 123.92 11.8189C124.396 12.0617 124.757 12.4024 125 12.8407C125.246 13.2761 125.369 13.7841 125.369 14.3646C125.369 14.948 125.244 15.4545 124.996 15.884C124.75 16.3104 124.386 16.6407 123.906 16.8746C123.426 17.1056 122.836 17.2212 122.136 17.2212H119.704V15.8529H121.913C122.323 15.8529 122.658 15.7966 122.919 15.684C123.18 15.5685 123.372 15.4012 123.497 15.182C123.624 14.9599 123.688 14.6873 123.688 14.3646C123.688 14.0417 123.624 13.7663 123.497 13.5382C123.37 13.3071 123.175 13.1324 122.914 13.014C122.653 12.8925 122.317 12.8318 121.904 12.8318H120.393V20.5532H118.744ZM123.448 16.4304L125.702 20.5532H123.861L121.647 16.4304H123.448ZM138.781 16.0039C138.781 16.9843 138.598 17.8239 138.23 18.5229C137.865 19.219 137.367 19.7521 136.736 20.1223C136.108 20.4925 135.394 20.6776 134.597 20.6776C133.799 20.6776 133.085 20.4925 132.454 20.1223C131.825 19.7491 131.327 19.2145 130.959 18.5185C130.595 17.8195 130.413 16.9813 130.413 16.0039C130.413 15.0235 130.595 14.1854 130.959 13.4894C131.327 12.7904 131.825 12.2557 132.454 11.8855C133.085 11.5153 133.799 11.3302 134.597 11.3302C135.394 11.3302 136.108 11.5153 136.736 11.8855C137.367 12.2557 137.865 12.7904 138.23 13.4894C138.598 14.1854 138.781 15.0235 138.781 16.0039ZM137.123 16.0039C137.123 15.3138 137.015 14.7318 136.798 14.258C136.584 13.781 136.288 13.4212 135.909 13.1784C135.529 12.9325 135.092 12.8096 134.597 12.8096C134.102 12.8096 133.665 12.9325 133.285 13.1784C132.906 13.4212 132.608 13.781 132.391 14.258C132.178 14.7318 132.071 15.3138 132.071 16.0039C132.071 16.694 132.178 17.2775 132.391 17.7543C132.608 18.2282 132.906 18.5881 133.285 18.8339C133.665 19.0768 134.102 19.1982 134.597 19.1982C135.092 19.1982 135.529 19.0768 135.909 18.8339C136.288 18.5881 136.584 18.2282 136.798 17.7543C137.015 17.2775 137.123 16.694 137.123 16.0039Z" fill="black"/>
<path d="M61.6149 25.0346C61.5781 24.9191 61.5285 24.8157 61.4663 24.7242C61.4053 24.6316 61.3322 24.5529 61.2471 24.4881C61.162 24.4221 61.0648 24.372 60.9555 24.3377C60.8475 24.3034 60.7287 24.2864 60.5991 24.2864C60.3794 24.2864 60.1812 24.3428 60.0046 24.4558C59.828 24.5687 59.6883 24.7344 59.5853 24.9527C59.4837 25.1698 59.4329 25.4357 59.4329 25.7506C59.4329 26.0665 59.4843 26.3337 59.5873 26.5521C59.6901 26.7704 59.8312 26.9361 60.0103 27.0491C60.1894 27.162 60.3933 27.2185 60.622 27.2185C60.8342 27.2185 61.0191 27.1753 61.1766 27.089C61.3354 27.0027 61.458 26.8809 61.5444 26.7234C61.6321 26.5648 61.6759 26.3782 61.6759 26.1637L61.8283 26.1923H60.7116V25.7067H62.2457V26.1504C62.2457 26.4779 62.1758 26.7622 62.0361 27.0033C61.8975 27.2433 61.7058 27.4286 61.4605 27.5593C61.2166 27.6901 60.9371 27.7555 60.622 27.7555C60.2688 27.7555 59.9588 27.6742 59.692 27.5117C59.4266 27.3492 59.2194 27.1189 59.0708 26.8206C58.9221 26.521 58.8478 26.1656 58.8478 25.7543C58.8478 25.4433 58.891 25.1641 58.9774 24.9165C59.0638 24.669 59.1852 24.4589 59.3414 24.2864C59.4989 24.1125 59.6838 23.9798 59.8959 23.8883C60.1094 23.7958 60.3425 23.7494 60.5954 23.7494C60.8063 23.7494 61.0025 23.7805 61.1842 23.8427C61.3672 23.9049 61.5298 23.9931 61.6721 24.1074C61.8156 24.2216 61.9344 24.3574 62.0285 24.5148C62.1225 24.671 62.186 24.8442 62.219 25.0346H61.6149ZM63.1005 27.7021V23.8027H65.5474V24.3092H63.6894V25.4973H65.4198V26.0018H63.6894V27.1956H65.5703V27.7021H63.1005ZM66.2488 24.3092V23.8027H69.2694V24.3092H68.0517V27.7021H67.4647V24.3092H66.2488ZM71.2707 23.8027H71.9396L72.9592 25.5753H73.0011L74.0206 23.8027H74.6895L73.2735 26.1713V27.7021H72.6866V26.1713L71.2707 23.8027ZM78.5439 25.7524C78.5439 26.1688 78.4677 26.5268 78.3152 26.8263C78.1628 27.1246 77.9538 27.3543 77.6883 27.5155C77.4241 27.6755 77.1235 27.7555 76.7869 27.7555C76.449 27.7555 76.1472 27.6755 75.8816 27.5155C75.6174 27.3543 75.409 27.124 75.2566 26.8244C75.1041 26.5248 75.0279 26.1675 75.0279 25.7524C75.0279 25.3361 75.1041 24.9787 75.2566 24.6804C75.409 24.3809 75.6174 24.1512 75.8816 23.9912C76.1472 23.83 76.449 23.7494 76.7869 23.7494C77.1235 23.7494 77.4241 23.83 77.6883 23.9912C77.9538 24.1512 78.1628 24.3809 78.3152 24.6804C78.4677 24.9787 78.5439 25.3361 78.5439 25.7524ZM77.9608 25.7524C77.9608 25.4351 77.9094 25.1679 77.8064 24.9509C77.7048 24.7325 77.565 24.5675 77.3872 24.4558C77.2106 24.3428 77.0105 24.2864 76.7869 24.2864C76.562 24.2864 76.3612 24.3428 76.1847 24.4558C76.0081 24.5675 75.8683 24.7325 75.7655 24.9509C75.6638 25.1679 75.613 25.4351 75.613 25.7524C75.613 26.0698 75.6638 26.3376 75.7655 26.5559C75.8683 26.7729 76.0081 26.938 76.1847 27.0509C76.3612 27.1626 76.562 27.2185 76.7869 27.2185C77.0105 27.2185 77.2106 27.1626 77.3872 27.0509C77.565 26.938 77.7048 26.7729 77.8064 26.5559C77.9094 26.3376 77.9608 26.0698 77.9608 25.7524ZM81.8952 23.8027H82.4861V26.3674C82.4861 26.6403 82.4218 26.8821 82.2936 27.0929C82.1652 27.3023 81.9848 27.4673 81.7523 27.5879C81.5198 27.7072 81.2473 27.7668 80.9348 27.7668C80.6235 27.7668 80.3516 27.7072 80.1191 27.5879C79.8866 27.4673 79.7062 27.3023 79.5779 27.0929C79.4496 26.8821 79.3854 26.6403 79.3854 26.3674V23.8027H79.9743V26.3198C79.9743 26.4963 80.013 26.653 80.0906 26.7901C80.1694 26.9272 80.2804 27.0351 80.4241 27.1138C80.5676 27.1912 80.7378 27.2299 80.9348 27.2299C81.133 27.2299 81.3038 27.1912 81.4474 27.1138C81.5923 27.0351 81.7027 26.9272 81.779 26.7901C81.8565 26.653 81.8952 26.4963 81.8952 26.3198V23.8027ZM83.4495 27.7021V23.8027H84.8407C85.143 23.8027 85.394 23.8547 85.5934 23.9589C85.7941 24.063 85.944 24.207 86.0431 24.391C86.1422 24.5738 86.1918 24.7852 86.1918 25.0251C86.1918 25.2637 86.1416 25.4738 86.0412 25.6553C85.9421 25.8355 85.7922 25.9758 85.5914 26.0761C85.392 26.1764 85.1411 26.2265 84.8387 26.2265H83.7849V25.7201H84.7854C84.9759 25.7201 85.1309 25.6927 85.2504 25.6381C85.3711 25.5836 85.4593 25.5043 85.5152 25.4002C85.5711 25.2961 85.5991 25.171 85.5991 25.0251C85.5991 24.8778 85.5705 24.7502 85.5134 24.6424C85.4575 24.5345 85.3692 24.452 85.2484 24.3948C85.129 24.3365 84.9722 24.3073 84.7777 24.3073H84.0383V27.7021H83.4495ZM85.3762 25.9428L86.3404 27.7021H85.6696L84.7244 25.9428H85.3762ZM88.5432 27.7021V23.8027H90.9633V24.3092H89.1321V25.4973H90.7898V26.0018H89.1321V27.7021H88.5432ZM94.3048 23.8027H94.8951V26.3674C94.8951 26.6403 94.8316 26.8821 94.7028 27.0929C94.5749 27.3023 94.3942 27.4673 94.1617 27.5879C93.9291 27.7072 93.6572 27.7668 93.3442 27.7668C93.0329 27.7668 92.761 27.7072 92.5285 27.5879C92.2959 27.4673 92.1162 27.3023 91.9874 27.0929C91.8595 26.8821 91.7951 26.6403 91.7951 26.3674V23.8027H92.3836V26.3198C92.3836 26.4963 92.4229 26.653 92.4999 26.7901C92.5786 26.9272 92.6904 27.0351 92.8335 27.1138C92.9775 27.1912 93.1474 27.2299 93.3442 27.2299C93.5427 27.2299 93.7136 27.1912 93.8567 27.1138C94.0016 27.0351 94.1125 26.9272 94.1885 26.7901C94.2663 26.653 94.3048 26.4963 94.3048 26.3198V23.8027ZM95.6661 24.3092V23.8027H98.6874V24.3092H97.4692V27.7021H96.8825V24.3092H95.6661ZM101.972 23.8027H102.563V26.3674C102.563 26.6403 102.498 26.8821 102.37 27.0929C102.242 27.3023 102.061 27.4673 101.829 27.5879C101.596 27.7072 101.324 27.7668 101.011 27.7668C100.7 27.7668 100.428 27.7072 100.195 27.5879C99.9628 27.4673 99.783 27.3023 99.6542 27.0929C99.5263 26.8821 99.462 26.6403 99.462 26.3674V23.8027H100.05V26.3198C100.05 26.4963 100.09 26.653 100.167 26.7901C100.245 26.9272 100.357 27.0351 100.5 27.1138C100.644 27.1912 100.814 27.2299 101.011 27.2299C101.21 27.2299 101.38 27.1912 101.524 27.1138C101.668 27.0351 101.779 26.9272 101.855 26.7901C101.933 26.653 101.972 26.4963 101.972 26.3198V23.8027ZM103.526 27.7021V23.8027H104.917C105.219 23.8027 105.471 23.8547 105.67 23.9589C105.87 24.063 106.021 24.207 106.12 24.391C106.218 24.5738 106.268 24.7852 106.268 25.0251C106.268 25.2637 106.218 25.4738 106.117 25.6553C106.019 25.8355 105.869 25.9758 105.668 26.0761C105.469 26.1764 105.217 26.2265 104.915 26.2265H103.862V25.7201H104.862C105.052 25.7201 105.208 25.6927 105.327 25.6381C105.447 25.5836 105.536 25.5043 105.591 25.4002C105.648 25.2961 105.675 25.171 105.675 25.0251C105.675 24.8778 105.647 24.7502 105.59 24.6424C105.534 24.5345 105.446 24.452 105.325 24.3948C105.206 24.3365 105.048 24.3073 104.854 24.3073H104.115V27.7021H103.526ZM105.453 25.9428L106.417 27.7021H105.746L104.801 25.9428H105.453ZM107.092 27.7021V23.8027H109.539V24.3092H107.681V25.4973H109.411V26.0018H107.681V27.1956H109.562V27.7021H107.092ZM114.089 24.8271C114.069 24.6468 113.985 24.5072 113.838 24.4082C113.69 24.3079 113.505 24.2578 113.281 24.2578C113.121 24.2578 112.983 24.2831 112.866 24.3339C112.748 24.3834 112.658 24.452 112.593 24.5395C112.529 24.6258 112.498 24.7242 112.498 24.8347C112.498 24.9274 112.519 25.0073 112.562 25.0746C112.607 25.1418 112.665 25.1984 112.736 25.2441C112.808 25.2885 112.886 25.3259 112.968 25.3564C113.051 25.3856 113.13 25.4097 113.207 25.4288L113.588 25.5278C113.713 25.5582 113.84 25.5994 113.971 25.6515C114.102 25.7036 114.223 25.7721 114.335 25.8572C114.447 25.9421 114.537 26.0475 114.605 26.1732C114.676 26.2989 114.711 26.4493 114.711 26.6244C114.711 26.8453 114.654 27.0415 114.539 27.2128C114.425 27.3842 114.261 27.5194 114.045 27.6183C113.831 27.7173 113.57 27.7668 113.266 27.7668C112.974 27.7668 112.721 27.7205 112.508 27.6279C112.294 27.5352 112.127 27.4038 112.006 27.2338C111.885 27.0624 111.819 26.8593 111.806 26.6244H112.397C112.409 26.7653 112.454 26.8828 112.534 26.9767C112.615 27.0694 112.719 27.1385 112.845 27.1843C112.972 27.2287 113.111 27.2508 113.262 27.2508C113.428 27.2508 113.577 27.2248 113.706 27.1728C113.837 27.1195 113.94 27.0459 114.015 26.9519C114.09 26.8568 114.128 26.7457 114.128 26.6187C114.128 26.5032 114.094 26.4087 114.028 26.3351C113.963 26.2614 113.875 26.2005 113.764 26.1522C113.653 26.104 113.527 26.0615 113.388 26.0247L112.926 25.899C112.614 25.814 112.367 25.689 112.183 25.5239C112.002 25.3589 111.911 25.1406 111.911 24.8689C111.911 24.6443 111.972 24.4482 112.094 24.2806C112.216 24.1131 112.381 23.983 112.589 23.8903C112.798 23.7964 113.033 23.7494 113.295 23.7494C113.559 23.7494 113.792 23.7958 113.993 23.8883C114.197 23.981 114.357 24.1086 114.474 24.2711C114.591 24.4323 114.652 24.6176 114.657 24.8271H114.089ZM115.521 27.7021V23.8027H117.968V24.3092H116.11V25.4973H117.84V26.0018H116.11V27.1956H117.991V27.7021H115.521ZM122.104 25.0708H121.509C121.487 24.9439 121.444 24.8322 121.381 24.7357C121.32 24.6392 121.244 24.5573 121.153 24.49C121.063 24.4228 120.962 24.372 120.85 24.3377C120.739 24.3034 120.622 24.2864 120.498 24.2864C120.272 24.2864 120.071 24.3428 119.893 24.4558C119.717 24.5687 119.577 24.7344 119.474 24.9527C119.372 25.171 119.321 25.4376 119.321 25.7524C119.321 26.0698 119.372 26.3376 119.474 26.5559C119.577 26.7742 119.718 26.9392 119.895 27.0509C120.073 27.1626 120.273 27.2185 120.496 27.2185C120.618 27.2185 120.735 27.202 120.846 27.169C120.958 27.1348 121.059 27.0845 121.149 27.0186C121.239 26.9526 121.316 26.872 121.378 26.7768C121.441 26.6803 121.485 26.5699 121.509 26.4455L122.104 26.4474C122.072 26.6391 122.01 26.8155 121.919 26.9767C121.828 27.1366 121.712 27.275 121.57 27.3918C121.43 27.5073 121.268 27.5968 121.086 27.6602C120.905 27.7237 120.706 27.7555 120.491 27.7555C120.153 27.7555 119.853 27.6755 119.588 27.5155C119.324 27.3543 119.116 27.124 118.964 26.8244C118.812 26.5248 118.736 26.1675 118.736 25.7524C118.736 25.3361 118.813 24.9787 118.965 24.6804C119.118 24.3809 119.326 24.1512 119.591 23.9912C119.854 23.83 120.155 23.7494 120.491 23.7494C120.699 23.7494 120.892 23.7792 121.071 23.8388C121.252 23.8973 121.413 23.9836 121.557 24.0978C121.701 24.2108 121.82 24.3492 121.913 24.5129C122.007 24.6754 122.071 24.8613 122.104 25.0708ZM125.426 23.8027H126.016V26.3674C126.016 26.6403 125.953 26.8821 125.824 27.0929C125.696 27.3023 125.515 27.4673 125.283 27.5879C125.05 27.7072 124.777 27.7668 124.465 27.7668C124.154 27.7668 123.882 27.7072 123.649 27.5879C123.417 27.4673 123.236 27.3023 123.108 27.0929C122.98 26.8821 122.916 26.6403 122.916 26.3674V23.8027H123.505V26.3198C123.505 26.4963 123.543 26.653 123.621 26.7901C123.7 26.9272 123.81 27.0351 123.954 27.1138C124.098 27.1912 124.268 27.2299 124.465 27.2299C124.664 27.2299 124.835 27.1912 124.978 27.1138C125.123 27.0351 125.233 26.9272 125.31 26.7901C125.386 26.653 125.426 26.4963 125.426 26.3198V23.8027ZM126.98 27.7021V23.8027H128.371C128.673 23.8027 128.925 23.8547 129.124 23.9589C129.325 24.063 129.475 24.207 129.573 24.391C129.672 24.5738 129.723 24.7852 129.723 25.0251C129.723 25.2637 129.672 25.4738 129.571 25.6553C129.472 25.8355 129.323 25.9758 129.121 26.0761C128.922 26.1764 128.672 26.2265 128.369 26.2265H127.316V25.7201H128.316C128.506 25.7201 128.662 25.6927 128.781 25.6381C128.901 25.5836 128.99 25.5043 129.045 25.4002C129.102 25.2961 129.13 25.171 129.13 25.0251C129.13 24.8778 129.101 24.7502 129.044 24.6424C128.988 24.5345 128.9 24.452 128.779 24.3948C128.659 24.3365 128.503 24.3073 128.308 24.3073H127.569V27.7021H126.98ZM128.907 25.9428L129.871 27.7021H129.2L128.255 25.9428H128.907ZM130.546 27.7021V23.8027H132.993V24.3092H131.135V25.4973H132.865V26.0018H131.135V27.1956H133.016V27.7021H130.546ZM135.151 27.7021H133.887V23.8027H135.19C135.573 23.8027 135.901 23.8808 136.176 24.0369C136.45 24.1917 136.66 24.4145 136.806 24.7052C136.954 24.9946 137.027 25.3418 137.027 25.7467C137.027 26.1529 136.953 26.502 136.804 26.7939C136.657 27.0859 136.444 27.3105 136.164 27.4679C135.885 27.624 135.547 27.7021 135.151 27.7021ZM134.475 27.188H135.118C135.415 27.188 135.662 27.1322 135.859 27.0205C136.056 26.9075 136.203 26.7444 136.302 26.5311C136.399 26.3167 136.448 26.0552 136.448 25.7467C136.448 25.4408 136.399 25.1812 136.302 24.9679C136.205 24.7547 136.06 24.5929 135.869 24.4824C135.677 24.372 135.439 24.3167 135.154 24.3167H134.475V27.188Z" fill="black"/>
</svg>
