<svg width="160" height="146" viewBox="0 0 160 146" fill="none" xmlns="http://www.w3.org/2000/svg">
<g clip-path="url(#clip0_94_16)">
<path d="M63.5 16L39 28.5L32 95.5L56.5 87.5L63.5 16Z" fill="white" stroke="white"/>
<path d="M95.5 11L71 23.5L64 90.5L88.5 82.5L95.5 11Z" fill="white" stroke="white"/>
<path d="M127.5 7L103 19.5L96 86.5L120.5 78.5L127.5 7Z" fill="white" stroke="white"/>
<path d="M34.5287 109.909V123H32.4193L26.251 114.083H26.1423V123H23.7709V109.909H25.893L32.055 118.832H32.17V109.909H34.5287ZM42.5127 123V109.909H51.0269V111.897H44.8841V115.451H50.5858V117.439H44.8841V121.012H51.078V123H42.5127ZM58.8463 123V109.909H63.7554C64.761 109.909 65.6048 110.097 66.2866 110.472C66.9727 110.847 67.4904 111.362 67.8399 112.018C68.1936 112.67 68.3704 113.412 68.3704 114.243C68.3704 115.082 68.1936 115.828 67.8399 116.48C67.4862 117.132 66.9642 117.646 66.2738 118.021C65.5835 118.391 64.7333 118.577 63.7234 118.577H60.4698V116.627H63.4038C63.9919 116.627 64.4734 116.525 64.8484 116.32C65.2234 116.116 65.5004 115.835 65.6794 115.477C65.8626 115.119 65.9542 114.707 65.9542 114.243C65.9542 113.778 65.8626 113.369 65.6794 113.016C65.5004 112.662 65.2213 112.387 64.842 112.191C64.467 111.991 63.9833 111.891 63.391 111.891H61.2177V123H58.8463ZM75.8303 123V109.909H84.3445V111.897H78.2017V115.451H83.9034V117.439H78.2017V121.012H84.3956V123H75.8303ZM100.416 109.909H102.787V118.462C102.787 119.399 102.566 120.224 102.123 120.935C101.684 121.647 101.066 122.203 100.269 122.604C99.4721 123 98.541 123.198 97.4756 123.198C96.406 123.198 95.4728 123 94.6759 122.604C93.879 122.203 93.2611 121.647 92.8222 120.935C92.3833 120.224 92.1638 119.399 92.1638 118.462V109.909H94.5353V118.263C94.5353 118.809 94.6546 119.295 94.8932 119.721C95.1361 120.147 95.4771 120.482 95.916 120.724C96.3549 120.963 96.8748 121.082 97.4756 121.082C98.0765 121.082 98.5964 120.963 99.0353 120.724C99.4785 120.482 99.8194 120.147 100.058 119.721C100.297 119.295 100.416 118.809 100.416 118.263V109.909ZM110.765 123V109.909H115.674C116.68 109.909 117.524 110.084 118.205 110.433C118.891 110.783 119.409 111.273 119.759 111.903C120.112 112.53 120.289 113.261 120.289 114.096C120.289 114.935 120.11 115.664 119.752 116.282C119.399 116.896 118.877 117.371 118.186 117.707C117.496 118.04 116.648 118.206 115.642 118.206H112.146V116.237H115.323C115.911 116.237 116.392 116.156 116.767 115.994C117.142 115.828 117.419 115.587 117.598 115.272C117.781 114.952 117.873 114.56 117.873 114.096C117.873 113.631 117.781 113.235 117.598 112.907C117.415 112.575 117.136 112.323 116.761 112.153C116.386 111.978 115.902 111.891 115.31 111.891H113.136V123H110.765ZM117.528 117.068L120.769 123H118.122L114.939 117.068H117.528ZM139.569 116.455C139.569 117.865 139.305 119.073 138.777 120.079C138.253 121.08 137.537 121.847 136.629 122.38C135.726 122.913 134.701 123.179 133.555 123.179C132.408 123.179 131.381 122.913 130.474 122.38C129.57 121.843 128.854 121.074 128.326 120.072C127.802 119.067 127.54 117.861 127.54 116.455C127.54 115.044 127.802 113.838 128.326 112.837C128.854 111.831 129.57 111.062 130.474 110.529C131.381 109.996 132.408 109.73 133.555 109.73C134.701 109.73 135.726 109.996 136.629 110.529C137.537 111.062 138.253 111.831 138.777 112.837C139.305 113.838 139.569 115.044 139.569 116.455ZM137.185 116.455C137.185 115.462 137.03 114.624 136.719 113.942C136.412 113.256 135.986 112.739 135.44 112.389C134.895 112.036 134.266 111.859 133.555 111.859C132.843 111.859 132.214 112.036 131.669 112.389C131.123 112.739 130.695 113.256 130.384 113.942C130.077 114.624 129.924 115.462 129.924 116.455C129.924 117.447 130.077 118.287 130.384 118.973C130.695 119.655 131.123 120.173 131.669 120.526C132.214 120.876 132.843 121.05 133.555 121.05C134.266 121.05 134.895 120.876 135.44 120.526C135.986 120.173 136.412 119.655 136.719 118.973C137.03 118.287 137.185 117.447 137.185 116.455Z" fill="white"/>
<path d="M18.5833 130.522C18.5216 130.328 18.4385 130.155 18.3341 130.001C18.2318 129.846 18.1093 129.714 17.9665 129.605C17.8238 129.494 17.6608 129.41 17.4775 129.353C17.2964 129.295 17.0972 129.266 16.8799 129.266C16.5113 129.266 16.1789 129.361 15.8827 129.551C15.5865 129.74 15.3522 130.018 15.1796 130.385C15.0091 130.749 14.9239 131.196 14.9239 131.724C14.9239 132.255 15.0102 132.703 15.1828 133.07C15.3554 133.436 15.5919 133.714 15.8923 133.904C16.1927 134.093 16.5347 134.188 16.9182 134.188C17.274 134.188 17.5841 134.116 17.8483 133.971C18.1146 133.826 18.3202 133.621 18.4651 133.357C18.6121 133.091 18.6856 132.778 18.6856 132.418L18.9413 132.466H17.0684V131.651H19.6412V132.395C19.6412 132.945 19.524 133.422 19.2897 133.827C19.0574 134.23 18.7357 134.541 18.3245 134.76C17.9154 134.98 17.4466 135.089 16.9182 135.089C16.3259 135.089 15.806 134.953 15.3586 134.68C14.9132 134.408 14.5659 134.021 14.3166 133.52C14.0674 133.017 13.9427 132.421 13.9427 131.73C13.9427 131.208 14.0152 130.74 14.16 130.324C14.3049 129.909 14.5084 129.556 14.7705 129.266C15.0347 128.974 15.3447 128.752 15.7005 128.598C16.0585 128.443 16.4495 128.365 16.8735 128.365C17.2272 128.365 17.5564 128.417 17.861 128.522C18.1679 128.626 18.4406 128.774 18.6792 128.966C18.92 129.158 19.1192 129.386 19.2769 129.65C19.4345 129.912 19.5411 130.203 19.5965 130.522H18.5833ZM21.0749 135V128.455H25.1786V129.305H22.0624V131.299H24.9644V132.146H22.0624V134.15H25.2169V135H21.0749ZM26.3549 129.305V128.455H31.4206V129.305H29.3784V135H28.394V129.305H26.3549ZM34.7769 128.455H35.8987L37.6086 131.43H37.6789L39.3887 128.455H40.5106L38.1359 132.43V135H37.1515V132.43L34.7769 128.455ZM46.9747 131.727C46.9747 132.426 46.8469 133.027 46.5912 133.53C46.3355 134.031 45.985 134.416 45.5397 134.687C45.0965 134.955 44.5926 135.089 44.028 135.089C43.4612 135.089 42.9552 134.955 42.5099 134.687C42.0667 134.416 41.7173 134.029 41.4616 133.527C41.2059 133.024 41.0781 132.424 41.0781 131.727C41.0781 131.028 41.2059 130.429 41.4616 129.928C41.7173 129.425 42.0667 129.039 42.5099 128.771C42.9552 128.5 43.4612 128.365 44.028 128.365C44.5926 128.365 45.0965 128.5 45.5397 128.771C45.985 129.039 46.3355 129.425 46.5912 129.928C46.8469 130.429 46.9747 131.028 46.9747 131.727ZM45.9967 131.727C45.9967 131.195 45.9105 130.746 45.7379 130.382C45.5674 130.015 45.333 129.738 45.0347 129.551C44.7386 129.361 44.403 129.266 44.028 129.266C43.6509 129.266 43.3142 129.361 43.0181 129.551C42.7219 129.738 42.4875 130.015 42.3149 130.382C42.1445 130.746 42.0592 131.195 42.0592 131.727C42.0592 132.26 42.1445 132.71 42.3149 133.076C42.4875 133.44 42.7219 133.717 43.0181 133.907C43.3142 134.094 43.6509 134.188 44.028 134.188C44.403 134.188 44.7386 134.094 45.0347 133.907C45.333 133.717 45.5674 133.44 45.7379 133.076C45.9105 132.71 45.9967 132.26 45.9967 131.727ZM52.5952 128.455H53.5859V132.76C53.5859 133.218 53.4783 133.624 53.2631 133.977C53.0479 134.329 52.7454 134.606 52.3555 134.808C51.9655 135.009 51.5085 135.109 50.9844 135.109C50.4623 135.109 50.0064 135.009 49.6165 134.808C49.2266 134.606 48.924 134.329 48.7088 133.977C48.4936 133.624 48.386 133.218 48.386 132.76V128.455H49.3736V132.68C49.3736 132.976 49.4386 133.239 49.5685 133.469C49.7006 133.699 49.8871 133.88 50.1278 134.012C50.3686 134.142 50.6541 134.207 50.9844 134.207C51.3168 134.207 51.6033 134.142 51.8441 134.012C52.087 133.88 52.2724 133.699 52.4002 133.469C52.5302 133.239 52.5952 132.976 52.5952 132.68V128.455ZM55.2017 135V128.455H57.5348C58.0419 128.455 58.4627 128.542 58.7973 128.717C59.1339 128.891 59.3853 129.133 59.5515 129.442C59.7177 129.749 59.8008 130.104 59.8008 130.506C59.8008 130.907 59.7167 131.26 59.5483 131.564C59.3821 131.867 59.1307 132.102 58.7941 132.271C58.4595 132.439 58.0387 132.523 57.5316 132.523H55.7642V131.673H57.4421C57.7618 131.673 58.0217 131.627 58.222 131.536C58.4244 131.444 58.5725 131.311 58.6662 131.136C58.76 130.961 58.8069 130.751 58.8069 130.506C58.8069 130.259 58.7589 130.045 58.663 129.864C58.5693 129.683 58.4212 129.544 58.2188 129.449C58.0185 129.35 57.7554 129.301 57.4294 129.301H56.1893V135H55.2017ZM58.4329 132.047L60.0501 135H58.9251L57.3399 132.047H58.4329ZM63.7444 135V128.455H67.8033V129.305H64.7319V131.299H67.5125V132.146H64.7319V135H63.7444ZM73.407 128.455H74.3977V132.76C74.3977 133.218 74.2901 133.624 74.0749 133.977C73.8597 134.329 73.5572 134.606 73.1672 134.808C72.7773 135.009 72.3203 135.109 71.7962 135.109C71.2741 135.109 70.8182 135.009 70.4283 134.808C70.0383 134.606 69.7358 134.329 69.5206 133.977C69.3054 133.624 69.1978 133.218 69.1978 132.76V128.455H70.1854V132.68C70.1854 132.976 70.2503 133.239 70.3803 133.469C70.5124 133.699 70.6989 133.88 70.9396 134.012C71.1804 134.142 71.4659 134.207 71.7962 134.207C72.1285 134.207 72.4151 134.142 72.6559 134.012C72.8988 133.88 73.0842 133.699 73.212 133.469C73.342 133.239 73.407 132.976 73.407 132.68V128.455ZM75.6907 129.305V128.455H80.7564V129.305H78.7142V135H77.7298V129.305H75.6907ZM86.265 128.455H87.2558V132.76C87.2558 133.218 87.1482 133.624 86.933 133.977C86.7178 134.329 86.4152 134.606 86.0253 134.808C85.6354 135.009 85.1784 135.109 84.6542 135.109C84.1322 135.109 83.6762 135.009 83.2863 134.808C82.8964 134.606 82.5938 134.329 82.3786 133.977C82.1634 133.624 82.0558 133.218 82.0558 132.76V128.455H83.0434V132.68C83.0434 132.976 83.1084 133.239 83.2384 133.469C83.3705 133.699 83.5569 133.88 83.7977 134.012C84.0384 134.142 84.324 134.207 84.6542 134.207C84.9866 134.207 85.2732 134.142 85.5139 134.012C85.7568 133.88 85.9422 133.699 86.07 133.469C86.2 133.239 86.265 132.976 86.265 132.68V128.455ZM88.8716 135V128.455H91.2047C91.7118 128.455 92.1326 128.542 92.4671 128.717C92.8038 128.891 93.0552 129.133 93.2214 129.442C93.3876 129.749 93.4707 130.104 93.4707 130.506C93.4707 130.907 93.3865 131.26 93.2182 131.564C93.052 131.867 92.8006 132.102 92.4639 132.271C92.1294 132.439 91.7086 132.523 91.2015 132.523H89.4341V131.673H91.112C91.4316 131.673 91.6915 131.627 91.8918 131.536C92.0942 131.444 92.2423 131.311 92.3361 131.136C92.4298 130.961 92.4767 130.751 92.4767 130.506C92.4767 130.259 92.4288 130.045 92.3329 129.864C92.2391 129.683 92.091 129.544 91.8886 129.449C91.6883 129.35 91.4252 129.301 91.0992 129.301H89.8591V135H88.8716ZM92.1028 132.047L93.7199 135H92.5949L91.0097 132.047H92.1028ZM94.8524 135V128.455H98.9561V129.305H95.8399V131.299H98.7419V132.146H95.8399V134.15H98.9944V135H94.8524ZM106.587 130.174C106.553 129.871 106.412 129.637 106.165 129.471C105.918 129.303 105.607 129.218 105.232 129.218C104.963 129.218 104.731 129.261 104.535 129.346C104.339 129.429 104.187 129.544 104.078 129.691C103.972 129.836 103.918 130.001 103.918 130.187C103.918 130.342 103.955 130.477 104.027 130.589C104.102 130.702 104.199 130.797 104.318 130.874C104.439 130.949 104.569 131.011 104.708 131.062C104.846 131.112 104.979 131.152 105.107 131.184L105.746 131.35C105.955 131.401 106.169 131.471 106.389 131.558C106.608 131.645 106.812 131.76 106.999 131.903C107.187 132.046 107.338 132.223 107.453 132.434C107.57 132.645 107.629 132.897 107.629 133.191C107.629 133.562 107.533 133.891 107.341 134.179C107.152 134.466 106.876 134.693 106.513 134.859C106.153 135.026 105.718 135.109 105.206 135.109C104.716 135.109 104.292 135.031 103.934 134.875C103.576 134.72 103.296 134.499 103.094 134.214C102.891 133.926 102.779 133.585 102.758 133.191H103.749C103.768 133.428 103.845 133.625 103.979 133.782C104.115 133.938 104.289 134.054 104.5 134.131C104.713 134.205 104.946 134.243 105.2 134.243C105.479 134.243 105.727 134.199 105.945 134.112C106.164 134.022 106.337 133.898 106.462 133.741C106.588 133.581 106.651 133.395 106.651 133.181C106.651 132.988 106.596 132.829 106.485 132.705C106.376 132.582 106.228 132.479 106.04 132.398C105.855 132.317 105.645 132.246 105.411 132.184L104.637 131.973C104.113 131.831 103.698 131.621 103.391 131.344C103.086 131.067 102.934 130.7 102.934 130.244C102.934 129.867 103.036 129.538 103.241 129.257C103.445 128.975 103.722 128.757 104.072 128.602C104.421 128.444 104.815 128.365 105.254 128.365C105.697 128.365 106.088 128.443 106.427 128.598C106.768 128.754 107.037 128.968 107.233 129.241C107.429 129.511 107.531 129.822 107.539 130.174H106.587ZM108.989 135V128.455H113.093V129.305H109.977V131.299H112.879V132.146H109.977V134.15H113.131V135H108.989ZM120.028 130.583H119.031C118.993 130.37 118.921 130.183 118.817 130.021C118.713 129.859 118.585 129.721 118.434 129.608C118.282 129.495 118.113 129.41 117.925 129.353C117.74 129.295 117.543 129.266 117.334 129.266C116.957 129.266 116.619 129.361 116.321 129.551C116.025 129.74 115.79 130.018 115.618 130.385C115.447 130.751 115.362 131.199 115.362 131.727C115.362 132.26 115.447 132.71 115.618 133.076C115.79 133.442 116.026 133.719 116.324 133.907C116.622 134.094 116.958 134.188 117.331 134.188C117.538 134.188 117.734 134.161 117.919 134.105C118.106 134.048 118.276 133.963 118.427 133.853C118.578 133.742 118.706 133.607 118.811 133.447C118.917 133.285 118.991 133.099 119.031 132.891L120.028 132.894C119.975 133.216 119.872 133.512 119.718 133.782C119.567 134.051 119.372 134.283 119.133 134.479C118.897 134.673 118.626 134.823 118.322 134.93C118.017 135.036 117.685 135.089 117.324 135.089C116.758 135.089 116.253 134.955 115.81 134.687C115.366 134.416 115.017 134.029 114.761 133.527C114.508 133.024 114.381 132.424 114.381 131.727C114.381 131.028 114.509 130.429 114.764 129.928C115.02 129.425 115.37 129.039 115.813 128.771C116.256 128.5 116.76 128.365 117.324 128.365C117.672 128.365 117.996 128.415 118.296 128.515C118.599 128.613 118.87 128.758 119.111 128.95C119.352 129.14 119.551 129.372 119.709 129.647C119.866 129.919 119.973 130.232 120.028 130.583ZM125.599 128.455H126.59V132.76C126.59 133.218 126.482 133.624 126.267 133.977C126.052 134.329 125.749 134.606 125.36 134.808C124.97 135.009 124.513 135.109 123.988 135.109C123.466 135.109 123.01 135.009 122.621 134.808C122.231 134.606 121.928 134.329 121.713 133.977C121.498 133.624 121.39 133.218 121.39 132.76V128.455H122.378V132.68C122.378 132.976 122.443 133.239 122.573 133.469C122.705 133.699 122.891 133.88 123.132 134.012C123.373 134.142 123.658 134.207 123.988 134.207C124.321 134.207 124.607 134.142 124.848 134.012C125.091 133.88 125.276 133.699 125.404 133.469C125.534 133.239 125.599 132.976 125.599 132.68V128.455ZM128.206 135V128.455H130.539C131.046 128.455 131.467 128.542 131.801 128.717C132.138 128.891 132.389 129.133 132.556 129.442C132.722 129.749 132.805 130.104 132.805 130.506C132.805 130.907 132.721 131.26 132.552 131.564C132.386 131.867 132.135 132.102 131.798 132.271C131.464 132.439 131.043 132.523 130.536 132.523H128.768V131.673H130.446C130.766 131.673 131.026 131.627 131.226 131.536C131.428 131.444 131.577 131.311 131.67 131.136C131.764 130.961 131.811 130.751 131.811 130.506C131.811 130.259 131.763 130.045 131.667 129.864C131.573 129.683 131.425 129.544 131.223 129.449C131.023 129.35 130.759 129.301 130.433 129.301H129.193V135H128.206ZM131.437 132.047L133.054 135H131.929L130.344 132.047H131.437ZM134.187 135V128.455H138.29V129.305H135.174V131.299H138.076V132.146H135.174V134.15H138.329V135H134.187ZM141.908 135H139.789V128.455H141.976C142.617 128.455 143.168 128.586 143.628 128.848C144.088 129.108 144.441 129.482 144.686 129.969C144.933 130.455 145.056 131.038 145.056 131.718C145.056 132.4 144.932 132.985 144.683 133.475C144.435 133.966 144.077 134.343 143.609 134.607C143.14 134.869 142.573 135 141.908 135ZM140.777 134.137H141.854C142.353 134.137 142.767 134.043 143.097 133.856C143.428 133.666 143.675 133.392 143.839 133.034C144.003 132.674 144.085 132.235 144.085 131.718C144.085 131.204 144.003 130.768 143.839 130.411C143.677 130.053 143.435 129.781 143.113 129.596C142.792 129.41 142.392 129.317 141.915 129.317H140.777V134.137Z" fill="white"/>
</g>
<defs>
<clipPath id="clip0_94_16">
<rect width="160" height="146" fill="white"/>
</clipPath>
</defs>
</svg>
