<svg width="161" height="47" viewBox="0 0 161 47" fill="none" xmlns="http://www.w3.org/2000/svg">
<path d="M27.9492 6.27112L16.322 12.2033L13 44L24.6271 40.2034L27.9492 6.27112Z" fill="white" stroke="white" stroke-width="0.474577"/>
<path d="M43.1357 3.89819L31.5086 9.83041L28.1865 41.6271L39.8137 37.8305L43.1357 3.89819Z" fill="white" stroke="white" stroke-width="0.474577"/>
<path d="M58.3221 2L46.695 7.93222L43.3729 39.7289L55.0001 35.9323L58.3221 2Z" fill="white" stroke="white" stroke-width="0.474577"/>
<path d="M73.4668 12.8182V23H71.8261L67.0286 16.0646H66.944V23H65.0996V12.8182H66.7501L71.5428 19.7585H71.6322V12.8182H73.4668ZM79.6765 23V12.8182H86.2987V14.3643H81.521V17.1286H85.9556V18.6747H81.521V21.4538H86.3385V23H79.6765ZM92.3804 23V12.8182H96.1986C96.9808 12.8182 97.6371 12.964 98.1674 13.2557C98.701 13.5473 99.1037 13.9484 99.3755 14.4588C99.6506 14.9659 99.7881 15.5426 99.7881 16.1889C99.7881 16.8419 99.6506 17.4219 99.3755 17.929C99.1004 18.4361 98.6944 18.8355 98.1574 19.1271C97.6205 19.4155 96.9593 19.5597 96.1738 19.5597H93.6432V18.0433H95.9252C96.3826 18.0433 96.7571 17.9638 97.0488 17.8047C97.3404 17.6456 97.5559 17.4268 97.6951 17.1484C97.8376 16.87 97.9088 16.5502 97.9088 16.1889C97.9088 15.8277 97.8376 15.5095 97.6951 15.2344C97.5559 14.9593 97.3388 14.7455 97.0438 14.593C96.7521 14.4373 96.3759 14.3594 95.9152 14.3594H94.2249V23H92.3804ZM105.59 23V12.8182H112.212V14.3643H107.435V17.1286H111.869V18.6747H107.435V21.4538H112.252V23H105.59ZM124.712 12.8182H126.557V19.4702C126.557 20.1993 126.385 20.8407 126.04 21.3942C125.698 21.9477 125.218 22.3802 124.598 22.6918C123.978 23 123.254 23.1541 122.425 23.1541C121.594 23.1541 120.868 23 120.248 22.6918C119.628 22.3802 119.148 21.9477 118.806 21.3942C118.465 20.8407 118.294 20.1993 118.294 19.4702V12.8182H120.139V19.3161C120.139 19.7403 120.231 20.1181 120.417 20.4496C120.606 20.781 120.871 21.0412 121.212 21.2301C121.554 21.4157 121.958 21.5085 122.425 21.5085C122.893 21.5085 123.297 21.4157 123.639 21.2301C123.983 21.0412 124.248 20.781 124.434 20.4496C124.62 20.1181 124.712 19.7403 124.712 19.3161V12.8182ZM132.762 23V12.8182H136.58C137.362 12.8182 138.018 12.9541 138.549 13.2259C139.082 13.4976 139.485 13.8788 139.757 14.3693C140.032 14.8565 140.169 15.425 140.169 16.0746C140.169 16.7275 140.03 17.2943 139.752 17.7749C139.477 18.2521 139.071 18.6217 138.534 18.8835C137.997 19.142 137.337 19.2713 136.555 19.2713H133.836V17.7401H136.306C136.764 17.7401 137.138 17.6771 137.43 17.5511C137.722 17.4219 137.937 17.2346 138.076 16.9893C138.219 16.7408 138.29 16.4358 138.29 16.0746C138.29 15.7133 138.219 15.4051 138.076 15.1499C137.934 14.8913 137.717 14.6958 137.425 14.5632C137.133 14.4273 136.757 14.3594 136.296 14.3594H134.606V23H132.762ZM138.022 18.3864L140.542 23H138.484L136.008 18.3864H138.022ZM155.165 17.9091C155.165 19.0062 154.96 19.9458 154.549 20.728C154.141 21.5069 153.584 22.1035 152.878 22.5178C152.176 22.9321 151.378 23.1392 150.487 23.1392C149.595 23.1392 148.797 22.9321 148.091 22.5178C147.388 22.1001 146.831 21.5019 146.42 20.723C146.012 19.9408 145.809 19.0028 145.809 17.9091C145.809 16.812 146.012 15.8741 146.42 15.0952C146.831 14.313 147.388 13.7147 148.091 13.3004C148.797 12.8861 149.595 12.679 150.487 12.679C151.378 12.679 152.176 12.8861 152.878 13.3004C153.584 13.7147 154.141 14.313 154.549 15.0952C154.96 15.8741 155.165 16.812 155.165 17.9091ZM153.311 17.9091C153.311 17.1368 153.19 16.4856 152.948 15.9553C152.709 15.4216 152.378 15.0189 151.954 14.7472C151.529 14.4721 151.04 14.3345 150.487 14.3345C149.933 14.3345 149.445 14.4721 149.02 14.7472C148.596 15.0189 148.263 15.4216 148.021 15.9553C147.782 16.4856 147.663 17.1368 147.663 17.9091C147.663 18.6813 147.782 19.3343 148.021 19.8679C148.263 20.3982 148.596 20.8009 149.02 21.076C149.445 21.3478 149.933 21.4837 150.487 21.4837C151.04 21.4837 151.529 21.3478 151.954 21.076C152.378 20.8009 152.709 20.3982 152.948 19.8679C153.19 19.3343 153.311 18.6813 153.311 17.9091Z" fill="white"/>
<path d="M68.8889 28.0149C68.8477 27.8857 68.7923 27.7699 68.7227 27.6676C68.6545 27.5639 68.5728 27.4759 68.4777 27.4034C68.3825 27.3295 68.2738 27.2734 68.1517 27.2351C68.0309 27.1967 67.8981 27.1776 67.7532 27.1776C67.5075 27.1776 67.2859 27.2408 67.0885 27.3672C66.891 27.4936 66.7348 27.679 66.6197 27.9233C66.5061 28.1662 66.4493 28.4638 66.4493 28.8161C66.4493 29.1697 66.5068 29.4687 66.6219 29.7131C66.7369 29.9574 66.8946 30.1428 67.0949 30.2692C67.2951 30.3956 67.5231 30.4588 67.7788 30.4588C68.016 30.4588 68.2227 30.4105 68.3988 30.3139C68.5764 30.2173 68.7135 30.081 68.8101 29.9048C68.9081 29.7273 68.9571 29.5185 68.9571 29.2784L69.1275 29.3104H67.879V28.767H69.5942V29.2635C69.5942 29.63 69.516 29.9482 69.3598 30.218C69.2049 30.4865 68.9905 30.6939 68.7163 30.8402C68.4436 30.9865 68.1311 31.0597 67.7788 31.0597C67.3839 31.0597 67.0373 30.9688 66.739 30.7869C66.4422 30.6051 66.2106 30.3473 66.0444 30.0135C65.8782 29.6783 65.7951 29.2805 65.7951 28.8203C65.7951 28.4723 65.8434 28.1598 65.94 27.8828C66.0366 27.6058 66.1723 27.3707 66.347 27.1776C66.5231 26.983 66.7298 26.8345 66.967 26.7322C67.2057 26.6286 67.4663 26.5767 67.749 26.5767C67.9848 26.5767 68.2042 26.6115 68.4074 26.6811C68.6119 26.7507 68.7937 26.8494 68.9528 26.9773C69.1133 27.1051 69.2461 27.2571 69.3513 27.4332C69.4564 27.608 69.5274 27.8018 69.5643 28.0149H68.8889ZM70.5499 31V26.6364H73.2857V27.2031H71.2083V28.5327H73.143V29.0973H71.2083V30.4332H73.3113V31H70.5499ZM74.0699 27.2031V26.6364H77.4471V27.2031H76.0856V31H75.4293V27.2031H74.0699ZM79.6846 26.6364H80.4325L81.5724 28.62H81.6193L82.7592 26.6364H83.507L81.9239 29.2869V31H81.2677V29.2869L79.6846 26.6364ZM87.8165 28.8182C87.8165 29.2841 87.7313 29.6847 87.5608 30.0199C87.3904 30.3537 87.1567 30.6108 86.8598 30.7912C86.5644 30.9702 86.2284 31.0597 85.852 31.0597C85.4742 31.0597 85.1368 30.9702 84.8399 30.7912C84.5445 30.6108 84.3115 30.353 84.1411 30.0178C83.9706 29.6825 83.8854 29.2827 83.8854 28.8182C83.8854 28.3523 83.9706 27.9524 84.1411 27.6186C84.3115 27.2834 84.5445 27.0263 84.8399 26.8473C85.1368 26.6669 85.4742 26.5767 85.852 26.5767C86.2284 26.5767 86.5644 26.6669 86.8598 26.8473C87.1567 27.0263 87.3904 27.2834 87.5608 27.6186C87.7313 27.9524 87.8165 28.3523 87.8165 28.8182ZM87.1645 28.8182C87.1645 28.4631 87.107 28.1641 86.9919 27.9212C86.8783 27.6768 86.722 27.4922 86.5232 27.3672C86.3257 27.2408 86.102 27.1776 85.852 27.1776C85.6006 27.1776 85.3761 27.2408 85.1787 27.3672C84.9813 27.4922 84.825 27.6768 84.71 27.9212C84.5963 28.1641 84.5395 28.4631 84.5395 28.8182C84.5395 29.1733 84.5963 29.473 84.71 29.7173C84.825 29.9602 84.9813 30.1449 85.1787 30.2713C85.3761 30.3963 85.6006 30.4588 85.852 30.4588C86.102 30.4588 86.3257 30.3963 86.5232 30.2713C86.722 30.1449 86.8783 29.9602 86.9919 29.7173C87.107 29.473 87.1645 29.1733 87.1645 28.8182ZM91.5634 26.6364H92.224V29.5064C92.224 29.8118 92.1522 30.0824 92.0088 30.3182C91.8653 30.5526 91.6636 30.7372 91.4036 30.8722C91.1437 31.0057 90.839 31.0724 90.4896 31.0724C90.1416 31.0724 89.8376 31.0057 89.5776 30.8722C89.3177 30.7372 89.116 30.5526 88.9725 30.3182C88.8291 30.0824 88.7573 29.8118 88.7573 29.5064V26.6364H89.4157V29.4531C89.4157 29.6506 89.459 29.826 89.5457 29.9794C89.6338 30.1328 89.758 30.2536 89.9186 30.3416C90.0791 30.4283 90.2694 30.4716 90.4896 30.4716C90.7112 30.4716 90.9022 30.4283 91.0627 30.3416C91.2247 30.2536 91.3482 30.1328 91.4335 29.9794C91.5201 29.826 91.5634 29.6506 91.5634 29.4531V26.6364ZM93.3012 31V26.6364H94.8566C95.1946 26.6364 95.4752 26.6946 95.6982 26.8111C95.9226 26.9276 96.0902 27.0888 96.201 27.2947C96.3118 27.4993 96.3672 27.7358 96.3672 28.0043C96.3672 28.2713 96.3111 28.5064 96.1989 28.7095C96.0881 28.9112 95.9205 29.0682 95.696 29.1804C95.473 29.2926 95.1925 29.3487 94.8544 29.3487H93.6762V28.782H94.7948C95.0078 28.782 95.1811 28.7514 95.3147 28.6903C95.4496 28.6293 95.5483 28.5405 95.6108 28.424C95.6733 28.3075 95.7046 28.1676 95.7046 28.0043C95.7046 27.8395 95.6726 27.6967 95.6087 27.576C95.5462 27.4553 95.4475 27.3629 95.3125 27.299C95.179 27.2337 95.0036 27.201 94.7862 27.201H93.9595V31H93.3012ZM95.4553 29.0312L96.5334 31H95.7834L94.7266 29.0312H95.4553ZM98.9962 31V26.6364H101.702V27.2031H99.6546V28.5327H101.508V29.0973H99.6546V31H98.9962ZM105.438 26.6364H106.098V29.5064C106.098 29.8118 106.027 30.0824 105.883 30.3182C105.74 30.5526 105.538 30.7372 105.278 30.8722C105.018 31.0057 104.714 31.0724 104.364 31.0724C104.016 31.0724 103.712 31.0057 103.452 30.8722C103.192 30.7372 102.991 30.5526 102.847 30.3182C102.704 30.0824 102.632 29.8118 102.632 29.5064V26.6364H103.29V29.4531C103.29 29.6506 103.334 29.826 103.42 29.9794C103.508 30.1328 103.633 30.2536 103.793 30.3416C103.954 30.4283 104.144 30.4716 104.364 30.4716C104.586 30.4716 104.777 30.4283 104.937 30.3416C105.099 30.2536 105.223 30.1328 105.308 29.9794C105.395 29.826 105.438 29.6506 105.438 29.4531V26.6364ZM106.96 27.2031V26.6364H110.338V27.2031H108.976V31H108.32V27.2031H106.96ZM114.01 26.6364H114.671V29.5064C114.671 29.8118 114.599 30.0824 114.455 30.3182C114.312 30.5526 114.11 30.7372 113.85 30.8722C113.59 31.0057 113.286 31.0724 112.936 31.0724C112.588 31.0724 112.284 31.0057 112.024 30.8722C111.764 30.7372 111.563 30.5526 111.419 30.3182C111.276 30.0824 111.204 29.8118 111.204 29.5064V26.6364H111.862V29.4531C111.862 29.6506 111.906 29.826 111.992 29.9794C112.08 30.1328 112.205 30.2536 112.365 30.3416C112.526 30.4283 112.716 30.4716 112.936 30.4716C113.158 30.4716 113.349 30.4283 113.509 30.3416C113.671 30.2536 113.795 30.1328 113.88 29.9794C113.967 29.826 114.01 29.6506 114.01 29.4531V26.6364ZM115.748 31V26.6364H117.303C117.641 26.6364 117.922 26.6946 118.145 26.8111C118.369 26.9276 118.537 27.0888 118.648 27.2947C118.758 27.4993 118.814 27.7358 118.814 28.0043C118.814 28.2713 118.758 28.5064 118.645 28.7095C118.535 28.9112 118.367 29.0682 118.143 29.1804C117.92 29.2926 117.639 29.3487 117.301 29.3487H116.123V28.782H117.241C117.454 28.782 117.628 28.7514 117.761 28.6903C117.896 28.6293 117.995 28.5405 118.057 28.424C118.12 28.3075 118.151 28.1676 118.151 28.0043C118.151 27.8395 118.119 27.6967 118.055 27.576C117.993 27.4553 117.894 27.3629 117.759 27.299C117.626 27.2337 117.45 27.201 117.233 27.201H116.406V31H115.748ZM117.902 29.0312L118.98 31H118.23L117.173 29.0312H117.902ZM119.735 31V26.6364H122.471V27.2031H120.393V28.5327H122.328V29.0973H120.393V30.4332H122.496V31H119.735ZM127.558 27.7827C127.535 27.581 127.442 27.4247 127.277 27.3139C127.112 27.2017 126.905 27.1456 126.655 27.1456C126.476 27.1456 126.321 27.174 126.19 27.2308C126.059 27.2862 125.958 27.3629 125.885 27.4609C125.814 27.5575 125.779 27.6676 125.779 27.7912C125.779 27.8949 125.803 27.9844 125.851 28.0597C125.901 28.1349 125.966 28.1982 126.045 28.2493C126.126 28.299 126.213 28.3409 126.305 28.375C126.397 28.4077 126.486 28.4347 126.572 28.456L126.998 28.5668C127.137 28.6009 127.28 28.647 127.426 28.7053C127.572 28.7635 127.708 28.8402 127.833 28.9354C127.958 29.0305 128.059 29.1484 128.135 29.2891C128.214 29.4297 128.253 29.598 128.253 29.794C128.253 30.0412 128.189 30.2607 128.061 30.4524C127.934 30.6442 127.75 30.7955 127.509 30.9062C127.269 31.017 126.978 31.0724 126.638 31.0724C126.311 31.0724 126.028 31.0206 125.79 30.9169C125.551 30.8132 125.364 30.6662 125.229 30.4759C125.094 30.2841 125.02 30.0568 125.005 29.794H125.666C125.679 29.9517 125.73 30.0831 125.819 30.1882C125.91 30.2919 126.026 30.3693 126.167 30.4205C126.309 30.4702 126.464 30.495 126.633 30.495C126.819 30.495 126.985 30.4659 127.13 30.4077C127.276 30.348 127.391 30.2656 127.475 30.1605C127.559 30.054 127.601 29.9297 127.601 29.7876C127.601 29.6584 127.564 29.5526 127.49 29.4702C127.417 29.3878 127.319 29.3196 127.194 29.2656C127.07 29.2116 126.93 29.1641 126.774 29.1229L126.258 28.9822C125.909 28.8871 125.632 28.7472 125.427 28.5625C125.224 28.3778 125.123 28.1335 125.123 27.8295C125.123 27.5781 125.191 27.3587 125.327 27.1712C125.464 26.9837 125.648 26.8381 125.881 26.7344C126.114 26.6293 126.377 26.5767 126.67 26.5767C126.965 26.5767 127.226 26.6286 127.451 26.7322C127.679 26.8359 127.858 26.9787 127.988 27.1605C128.119 27.3409 128.187 27.5483 128.193 27.7827H127.558ZM129.159 31V26.6364H131.895V27.2031H129.818V28.5327H131.752V29.0973H129.818V30.4332H131.921V31H129.159ZM136.519 28.0554H135.854C135.829 27.9134 135.781 27.7884 135.711 27.6804C135.642 27.5724 135.557 27.4808 135.456 27.4055C135.355 27.3303 135.242 27.2734 135.117 27.2351C134.993 27.1967 134.862 27.1776 134.723 27.1776C134.471 27.1776 134.246 27.2408 134.047 27.3672C133.85 27.4936 133.694 27.679 133.579 27.9233C133.465 28.1676 133.408 28.4659 133.408 28.8182C133.408 29.1733 133.465 29.473 133.579 29.7173C133.694 29.9616 133.851 30.1463 134.049 30.2713C134.248 30.3963 134.472 30.4588 134.721 30.4588C134.858 30.4588 134.989 30.4403 135.113 30.4034C135.238 30.3651 135.351 30.3089 135.451 30.2351C135.552 30.1612 135.638 30.071 135.707 29.9645C135.778 29.8565 135.827 29.733 135.854 29.5938L136.519 29.5959C136.483 29.8104 136.414 30.0078 136.312 30.1882C136.211 30.3672 136.081 30.522 135.922 30.6527C135.765 30.782 135.584 30.8821 135.381 30.9531C135.178 31.0241 134.956 31.0597 134.716 31.0597C134.338 31.0597 134.002 30.9702 133.706 30.7912C133.411 30.6108 133.178 30.353 133.008 30.0178C132.838 29.6825 132.754 29.2827 132.754 28.8182C132.754 28.3523 132.839 27.9524 133.01 27.6186C133.18 27.2834 133.413 27.0263 133.709 26.8473C134.004 26.6669 134.34 26.5767 134.716 26.5767C134.948 26.5767 135.164 26.6101 135.364 26.6768C135.566 26.7422 135.747 26.8388 135.907 26.9666C136.068 27.093 136.201 27.2479 136.306 27.4311C136.411 27.6129 136.482 27.821 136.519 28.0554ZM140.233 26.6364H140.893V29.5064C140.893 29.8118 140.822 30.0824 140.678 30.3182C140.535 30.5526 140.333 30.7372 140.073 30.8722C139.813 31.0057 139.508 31.0724 139.159 31.0724C138.811 31.0724 138.507 31.0057 138.247 30.8722C137.987 30.7372 137.785 30.5526 137.642 30.3182C137.498 30.0824 137.427 29.8118 137.427 29.5064V26.6364H138.085V29.4531C138.085 29.6506 138.128 29.826 138.215 29.9794C138.303 30.1328 138.427 30.2536 138.588 30.3416C138.748 30.4283 138.939 30.4716 139.159 30.4716C139.381 30.4716 139.572 30.4283 139.732 30.3416C139.894 30.2536 140.018 30.1328 140.103 29.9794C140.189 29.826 140.233 29.6506 140.233 29.4531V26.6364ZM141.971 31V26.6364H143.526C143.864 26.6364 144.145 26.6946 144.368 26.8111C144.592 26.9276 144.76 27.0888 144.87 27.2947C144.981 27.4993 145.037 27.7358 145.037 28.0043C145.037 28.2713 144.98 28.5064 144.868 28.7095C144.757 28.9112 144.59 29.0682 144.365 29.1804C144.142 29.2926 143.862 29.3487 143.524 29.3487H142.346V28.782H143.464C143.677 28.782 143.851 28.7514 143.984 28.6903C144.119 28.6293 144.218 28.5405 144.28 28.424C144.343 28.3075 144.374 28.1676 144.374 28.0043C144.374 27.8395 144.342 27.6967 144.278 27.576C144.216 27.4553 144.117 27.3629 143.982 27.299C143.848 27.2337 143.673 27.201 143.456 27.201H142.629V31H141.971ZM144.125 29.0312L145.203 31H144.453L143.396 29.0312H144.125ZM145.958 31V26.6364H148.694V27.2031H146.616V28.5327H148.551V29.0973H146.616V30.4332H148.719V31H145.958ZM151.106 31H149.693V26.6364H151.15C151.578 26.6364 151.945 26.7237 152.252 26.8984C152.559 27.0717 152.794 27.321 152.957 27.6463C153.122 27.9702 153.204 28.3587 153.204 28.8118C153.204 29.2663 153.121 29.657 152.955 29.9837C152.79 30.3104 152.552 30.5618 152.239 30.7379C151.927 30.9126 151.549 31 151.106 31ZM150.351 30.4247H151.069C151.402 30.4247 151.678 30.3622 151.898 30.2372C152.118 30.1108 152.283 29.9283 152.393 29.6896C152.502 29.4496 152.557 29.157 152.557 28.8118C152.557 28.4695 152.502 28.179 152.393 27.9403C152.285 27.7017 152.123 27.5206 151.909 27.397C151.694 27.2734 151.428 27.2116 151.11 27.2116H150.351V30.4247Z" fill="white"/>
</svg>
